<?xml version='1.0' encoding='iso-8859-1'?>
<svg version="1.1" xmlns="http://www.w3.org/2000/svg" viewBox="0 0 487.4 487.4" xmlns:xlink="http://www.w3.org/1999/xlink" enable-background="new 0 0 487.4 487.4">
  <g>
    <g>
      <path d="m349.45,111c0-35.3-29-64.3-64.3-64.3s-64.3,29-64.3,64.3 29,64.3 64.3,64.3c35.2,0 64.3-29.1 64.3-64.3zm-107.9,0c0-23.9 19.7-43.6 43.6-43.6s43.6,18.7 43.6,43.6c0,23.9-19.7,43.6-43.6,43.6-23.9-0.1-43.6-19.8-43.6-43.6z"/>
      <path d="m377.85,156.6c8.7-22.1 13.1-38.7 13.1-50.8 0-58.1-47.7-105.8-105.8-105.8s-105.8,47.7-105.8,105.8c0,13.3 5.1,31.1 12.9,50.8h-114.5v330.8h331.9v-330.8h-31.8zm-92.7-135.9c46.7,1.06581e-14 85,38.4 85,86.1 0,7.3 0,41.9-85,178.4-30.1-47.7-85-142.1-85-179.4-0.1-46.7 38.3-85.1 85-85.1zm-186.7,218.9h58.1l34.2,53v93.2l-92.3,28.1v-174.3zm0,227.1v-31.3l113-35.1v-75.6l50.8,78.7h126.5v63.3h-290.3zm290.4-84h-115.1l-105.8-163.9h-69.5v-41.5h102.8c26.5,57.7 83.9,146.2 83.9,146.2s55.4-85.6 83.8-146.2h19.9l0,205.4z"/>
    </g>
  </g>
</svg>
