<?xml version="1.0" encoding="iso-8859-1"?>
<!-- Generator: Adobe Illustrator 19.0.0, SVG Export Plug-In . SVG Version: 6.00 Build 0)  -->
<svg version="1.1" id="Layer_1" xmlns="http://www.w3.org/2000/svg" xmlns:xlink="http://www.w3.org/1999/xlink" x="0px" y="0px"
	 viewBox="0 0 512 512" style="enable-background:new 0 0 512 512;" xml:space="preserve">
<g>
	<g>
		<path d="M461.808,52.267H273.067V8.533c0-4.717-3.821-8.533-8.533-8.533S256,3.817,256,8.533v43.733H52.325
			c-14.15,0-26.725,10.425-26.725,24.55v238.9c0,14.125,12.575,26.683,26.725,26.683H245L131.567,455.3
			c-3.333,3.333-3.333,8.467,0,11.8c1.667,1.667,3.85,2.367,6.033,2.367c2.183,0,3.833-0.9,5.5-2.567L256,353.4v150.067
			c0,4.717,3.821,8.533,8.533,8.533s8.533-3.817,8.533-8.533V353.4l113.967,113.433c1.667,1.667,4.117,2.5,6.3,2.5
			c2.183,0,4.5-0.833,6.167-2.5c3.333-3.333,3.4-8.2,0.067-11.533L286.2,342.4h175.609c14.15,0,24.592-12.558,24.592-26.683v-238.9
			C486.4,62.692,475.958,52.267,461.808,52.267z M469.333,315.717c0,4.717-2.787,9.617-7.525,9.617H52.325
			c-4.737,0-9.658-4.9-9.658-9.617v-238.9c0-4.717,4.921-7.483,9.658-7.483h409.484c4.737,0,7.525,2.767,7.525,7.483V315.717z"/>
	</g>
</g>
<g>
	<g>
		<path d="M333.867,103.467H240c-4.713,0-8.533,3.817-8.533,8.533c0,4.717,3.821,8.533,8.533,8.533h93.867
			c4.713,0,8.533-3.817,8.533-8.533C342.4,107.283,338.579,103.467,333.867,103.467z"/>
	</g>
</g>
<g>
	<g>
		<path d="M427.733,103.467h-51.2c-4.713,0-8.533,3.817-8.533,8.533c0,4.717,3.821,8.533,8.533,8.533h51.2
			c4.713,0,8.533-3.817,8.533-8.533C436.267,107.283,432.446,103.467,427.733,103.467z"/>
	</g>
</g>
<g>
	<g>
		<path d="M427.733,146.133h-51.2c-4.713,0-8.533,3.817-8.533,8.533c0,4.717,3.821,8.533,8.533,8.533h51.2
			c4.713,0,8.533-3.817,8.533-8.533C436.267,149.95,432.446,146.133,427.733,146.133z"/>
	</g>
</g>
<g>
	<g>
		<path d="M427.733,188.8h-51.2c-4.713,0-8.533,3.817-8.533,8.533c0,4.717,3.821,8.533,8.533,8.533h51.2
			c4.713,0,8.533-3.817,8.533-8.533C436.267,192.617,432.446,188.8,427.733,188.8z"/>
	</g>
</g>
<g>
	<g>
		<path d="M427.733,231.467h-51.2c-4.713,0-8.533,3.817-8.533,8.533c0,4.717,3.821,8.533,8.533,8.533h51.2
			c4.713,0,8.533-3.817,8.533-8.533C436.267,235.283,432.446,231.467,427.733,231.467z"/>
	</g>
</g>
<g>
	<g>
		<path d="M427.733,274.133h-51.2c-4.713,0-8.533,3.817-8.533,8.533s3.821,8.533,8.533,8.533h51.2c4.713,0,8.533-3.817,8.533-8.533
			S432.446,274.133,427.733,274.133z"/>
	</g>
</g>
<g>
	<g>
		<path d="M333.867,146.133H240c-4.713,0-8.533,3.817-8.533,8.533c0,4.717,3.821,8.533,8.533,8.533h93.867
			c4.713,0,8.533-3.817,8.533-8.533C342.4,149.95,338.579,146.133,333.867,146.133z"/>
	</g>
</g>
<g>
	<g>
		<path d="M333.867,188.8H240c-4.713,0-8.533,3.817-8.533,8.533c0,4.717,3.821,8.533,8.533,8.533h93.867
			c4.713,0,8.533-3.817,8.533-8.533C342.4,192.617,338.579,188.8,333.867,188.8z"/>
	</g>
</g>
<g>
	<g>
		<path d="M333.867,231.467H240c-4.713,0-8.533,3.817-8.533,8.533c0,4.717,3.821,8.533,8.533,8.533h93.867
			c4.713,0,8.533-3.817,8.533-8.533C342.4,235.283,338.579,231.467,333.867,231.467z"/>
	</g>
</g>
<g>
	<g>
		<path d="M333.867,274.133H240c-4.713,0-8.533,3.817-8.533,8.533s3.821,8.533,8.533,8.533h93.867c4.713,0,8.533-3.817,8.533-8.533
			S338.579,274.133,333.867,274.133z"/>
	</g>
</g>
<g>
	<g>
		<path d="M147.192,183.533c-18.487-2.308-26.658-4.067-26.658-21.4c0-9.25,2.533-15.508,7.746-19.133
			c12.871-8.925,39.729-1.917,49,1.525c4.425,1.658,9.333-0.592,10.975-5.008c1.65-4.408-1.117-9.317-5.525-10.975
			c-2.289-0.858-14.196-5.171-29.129-6.542v-18.533h-17.067v18.635c-6.4,0.892-12.865,2.964-18.492,6.864
			c-6.892,4.775-14.842,14.408-14.842,33.167c0,33.133,25.171,36.267,41.742,38.333c18.487,2.308,26.725,4.067,26.725,21.4
			c0,9.25-2.5,15.508-7.712,19.133c-12.871,8.95-39.712,1.925-48.983-1.525c-4.413-1.633-9.321,0.592-10.967,5.008
			c-1.65,4.408,0.054,9.317,4.462,10.975c2.294,0.86,15.267,5.154,28.067,6.527v20.681H153.6v-20.846
			c8.533-0.892,13.935-2.89,19.558-6.787c6.892-4.775,15.375-14.408,15.375-33.167C188.533,188.733,163.763,185.6,147.192,183.533z"
			/>
	</g>
</g>
<g>
</g>
<g>
</g>
<g>
</g>
<g>
</g>
<g>
</g>
<g>
</g>
<g>
</g>
<g>
</g>
<g>
</g>
<g>
</g>
<g>
</g>
<g>
</g>
<g>
</g>
<g>
</g>
<g>
</g>
</svg>
